<svg width="800" height="600" xmlns="http://www.w3.org/2000/svg">
 <!-- Created with Method Draw - http://github.com/duopixel/Method-Draw/ -->

 <g>
  <title>background</title>
  <rect fill="#fff" id="canvas_background" height="602" width="802" y="-1" x="-1"/>
  <g display="none" overflow="visible" y="0" x="0" height="100%" width="100%" id="canvasGrid">
   <rect fill="url(#gridpattern)" stroke-width="0" y="0" x="0" height="100%" width="100%"/>
  </g>
 </g>
 <g>
  <title>Layer 1</title>
  <g stroke="null" id="svg_39">
   <g stroke="null" transform="matrix(1.1311035261127929,0,0,1.1213378635268603,-2132.2123073688476,-1481.9251348061441) " id="svg_5">
    <g stroke="null" id="svg_6">
     <circle stroke="null" id="svg_7" fill="#FA5D0F" r="256" cy="1581.52493" cx="2277.60833"/>
    </g>
    <path stroke="null" id="svg_8" fill="#D13400" d="m2352.89533,1826.26493c75.147,-23.09 135.549,-79.837 163.633,-152.653l-221.728,-221.727l-169.182,135.64l127.779,127.779l-6.25,5.213l105.748,105.748z"/>
    <g stroke="null" id="svg_9">
     <path stroke="null" id="svg_10" fill="#BEC3D2" d="m2344.95633,1750.27693c54.177,0 98.096,-43.919 98.096,-98.096s-43.919,-98.096 -98.096,-98.096l-27.441,0l0,196.193l27.441,0l0,-0.001z"/>
    </g>
    <g stroke="null" id="svg_11">
     <circle stroke="null" id="svg_12" fill="#E9EDF5" r="98.096" cy="1652.18093" cx="2317.51533"/>
    </g>
    <g stroke="null" id="svg_13">
     <path stroke="null" id="svg_14" fill="#CDD2E1" d="m2317.51533,1554.08393c-0.144,0 -0.287,0.005 -0.431,0.005l0,196.182c0.144,0.001 0.287,0.006 0.431,0.006c54.177,0 98.096,-43.919 98.096,-98.096s-43.919,-98.097 -98.096,-98.097z"/>
    </g>
    <g stroke="null" id="svg_15">
     <path stroke="null" id="svg_16" fill="#FFFFFF" d="m2317.51533,1727.11693c-21.605,0 -41.405,-12.692 -50.442,-32.335l25.438,-11.703c4.482,9.743 14.297,16.038 25.005,16.038c10.707,0 20.521,-6.295 25.004,-16.038l25.438,11.703c-9.038,19.642 -28.838,32.335 -50.443,32.335z"/>
    </g>
    <g stroke="null" id="svg_17">
     <path stroke="null" id="svg_18" fill="#E9EDF5" d="m2342.51933,1683.07893c-4.482,9.743 -14.297,16.038 -25.004,16.038c-0.145,0 -0.287,-0.013 -0.431,-0.016l0,28.008c0.144,0.001 0.287,0.008 0.431,0.008c21.604,0 41.404,-12.692 50.441,-32.335l-25.437,-11.703z"/>
    </g>
    <g stroke="null" id="svg_19">
     <g stroke="null" id="svg_20">
      <circle stroke="null" id="svg_21" fill="#E9EDF5" r="14.117" cy="1635.60793" cx="2362.33533"/>
     </g>
     <g stroke="null" id="svg_22">
      <circle stroke="null" id="svg_23" fill="#FFFFFF" r="14.117" cy="1635.60793" cx="2272.69533"/>
     </g>
    </g>
    <g stroke="null" id="svg_24">
     <path stroke="null" id="svg_25" fill="#BEC3D2" d="m2224.14533,1618.02393c54.177,0 98.096,-43.919 98.096,-98.096s-43.919,-98.096 -98.096,-98.096l-27.441,0l0,196.193l27.441,0l0,-0.001z"/>
    </g>
    <g stroke="null" id="svg_26">
     <circle stroke="null" id="svg_27" fill="#E9EDF5" r="98.096" cy="1519.92793" cx="2196.70433"/>
    </g>
    <g stroke="null" id="svg_28">
     <path stroke="null" id="svg_29" fill="#CDD2E1" d="m2196.70433,1421.83093c-0.151,0 -0.302,0.005 -0.453,0.006l0,196.181c0.152,0.001 0.302,0.006 0.453,0.006c54.177,0 98.096,-43.919 98.096,-98.096c0,-54.177 -43.919,-98.097 -98.096,-98.097z"/>
    </g>
    <g stroke="null" id="svg_30">
     <path stroke="null" id="svg_31" fill="#FFFFFF" d="m2196.70533,1594.86393c-21.605,0 -41.405,-12.692 -50.442,-32.335l25.438,-11.703c4.482,9.743 14.297,16.038 25.005,16.038c10.707,0 20.521,-6.295 25.004,-16.038l25.438,11.703c-9.039,19.643 -28.839,32.335 -50.443,32.335z"/>
    </g>
    <g stroke="null" id="svg_32">
     <path stroke="null" id="svg_33" fill="#E9EDF5" d="m2221.70933,1550.82593c-4.482,9.743 -14.297,16.038 -25.004,16.038c-0.152,0 -0.302,-0.014 -0.454,-0.017l0,28.008c0.152,0.001 0.302,0.008 0.454,0.008c21.604,0 41.404,-12.692 50.441,-32.335l-25.437,-11.702z"/>
    </g>
    <g stroke="null" id="svg_34">
     <g stroke="null" id="svg_35">
      <circle stroke="null" id="svg_36" fill="#E9EDF5" r="14.117" cy="1503.35593" cx="2241.52433"/>
     </g>
     <g stroke="null" id="svg_37">
      <circle stroke="null" id="svg_38" fill="#FFFFFF" r="14.117" cy="1503.35593" cx="2151.88433"/>
     </g>
    </g>
   </g>
  </g>
  <ellipse ry="111" rx="111" id="svg_44" cy="221.39999" cx="350.5" stroke-width="1.5" stroke="null" fill="#CDD2E1"/>
  <path stroke="null" id="svg_42" d="m351.98232,108.94733c-61.85647,0 -111.99999,49.91901 -111.99999,111.49997c0,61.57967 50.14352,111.50001 111.99999,111.50001c61.85719,0 111.99999,-49.92034 111.99999,-111.50001c0,-61.58096 -50.1428,-111.49997 -111.99999,-111.49997zm9.67139,171.95145l0,15.70506l-15.08843,0l0,-15.52811c-24.75979,-3.37568 -35.60991,-23.62863 -35.60991,-23.62863l15.42786,-12.83417c0,0 9.83308,17.0542 27.63412,17.0542c9.83229,0 17.29227,-5.23975 17.29227,-14.18613c0,-20.93471 -56.63195,-18.39612 -56.63195,-57.22211c0,-16.87868 13.39297,-29.03827 31.8796,-31.90636l0,-15.70349l15.08906,0l0,15.6948c12.88447,1.68856 28.14257,8.43999 28.14257,22.96143l0,11.13962l-20.00565,0l0,-5.40068c0,-5.56924 -7.1279,-9.28303 -15.09569,-9.28303c-10.17185,0 -17.63186,5.063 -17.63186,12.15233c0,21.43391 56.63193,16.20266 56.63193,56.88564c0.00809,16.71609 -12.53748,31.23161 -32.0339,34.09963l0,-0.00001z" stroke-width="1.5" fill="#E9EDF5"/>
 </g>
</svg>