<svg width="88" height="159" viewBox="0 0 88 159" fill="none" xmlns="http://www.w3.org/2000/svg">
<path opacity="0.1" d="M17.133 16.7368H1.18372C0.529972 16.7368 0 17.2211 0 17.8185V21.9315C0 22.5289 0.529972 23.0132 1.18372 23.0132H17.133C17.7868 23.0132 18.3167 22.5289 18.3167 21.9315V17.8185C18.3167 17.2211 17.7868 16.7368 17.133 16.7368Z" fill="#F5550A"/>
<path opacity="0.1" d="M70.5677 10.4605H55.6586C55.0474 10.4605 54.552 10.9448 54.552 11.5422V15.6552C54.552 16.2526 55.0474 16.7369 55.6586 16.7369H70.5677C71.1788 16.7369 71.6742 16.2526 71.6742 15.6552V11.5422C71.6742 10.9448 71.1788 10.4605 70.5677 10.4605Z" fill="#F5550A"/>
<path d="M88 39.4883L82.1057 41.8421L75.2579 18.9977L76.8642 17.1735L79.808 16.7368L88 39.4883Z" fill="#F5550A"/>
<path opacity="0.2" d="M88 39.4883L82.1057 41.8421L75.2579 18.9977L76.8642 17.1735L79.808 16.7368L88 39.4883Z" fill="white"/>
<path d="M76.5027 17.7829L66.4977 19.0227L71.6262 42.8882L81.629 42.137L76.5027 17.7829Z" fill="#F5550A"/>
<path opacity="0.07" d="M76.5027 17.7829L66.4977 19.0227L71.6262 42.8882L81.629 42.137L76.5027 17.7829Z" fill="white"/>
<path d="M74.4006 17.7829L74.2231 17.7646C74.2231 17.7095 74.9627 12.3298 70.8778 11.6513L70.9123 11.5066C75.1722 12.2137 74.4154 17.7279 74.4006 17.7829Z" fill="#535461"/>
<path d="M46.9864 34.5197H36.2353V50.2105H46.9864V34.5197Z" fill="#774E55"/>
<path opacity="0.2" d="M46.9864 34.5197H36.2353V50.2105H46.9864V34.5197Z" fill="black"/>
<path d="M76.8507 43.4631L70.8778 43.9342L71.7974 20.0837L73.7869 18.8289L76.5435 19.3L76.8507 43.4631Z" fill="#F5550A"/>
<path opacity="0.2" d="M76.8507 43.4631L70.8778 43.9342L71.7974 20.0837L73.7869 18.8289L76.5435 19.3L76.8507 43.4631Z" fill="black"/>
<path d="M74.4615 19.6086L63.3522 17.7829L60.1267 41.6541L71.0576 43.9342L74.4615 19.6086Z" fill="#F5550A"/>
<path d="M14.1271 7.32236H12.6028L9.55656 32.4276L16.3258 32.1091L14.1271 7.32236Z" fill="#F5550A"/>
<path opacity="0.2" d="M14.1271 7.32236H12.6028L9.55656 32.4276L16.3258 32.1091L14.1271 7.32236Z" fill="black"/>
<path d="M13.3894 7.32236L11.5475 31.9167L27.6242 33.4737L29.4661 9.50163L13.3894 7.32236Z" fill="#F5550A"/>
<path d="M32.6519 134.941C32.6519 134.941 30.6659 134.787 30.3338 140.206C30.3338 140.206 30.6659 143.147 29.8367 144.542C29.0075 145.936 29.5046 149.961 31.9899 150.426C33.5799 150.7 35.2101 150.7 36.8002 150.426C36.8002 150.426 37.9592 150.426 37.1323 146.555L35.4762 135.252L32.6519 134.941Z" fill="#5C3D53"/>
<path opacity="0.05" d="M32.6519 134.941C32.6519 134.941 30.6659 134.787 30.3338 140.206C30.3338 140.206 30.6659 143.147 29.8367 144.542C29.0075 145.936 29.5046 149.961 31.9899 150.426C33.5799 150.7 35.2101 150.7 36.8002 150.426C36.8002 150.426 37.9592 150.426 37.1323 146.555L35.4762 135.252L32.6519 134.941Z" fill="black"/>
<path d="M43.3535 45.3224C43.2147 47.6293 43.6959 48.9671 43.6959 48.9671L39.491 50.0519C39.491 50.0519 32.5358 50.9823 35.2861 48.3367C36.2372 47.4256 36.7049 45.8627 36.9085 44.2119C37.0359 43.0843 37.0756 41.9492 37.0271 40.8159C36.9898 39.7542 36.8942 38.6951 36.7407 37.6429C36.7407 37.6429 46.9318 34.2341 44.6671 39.8126C44.2545 40.8216 43.929 41.8613 43.6936 42.9212C43.5186 43.7125 43.4049 44.5151 43.3535 45.3224Z" fill="#F8BDC5"/>
<path opacity="0.1" d="M44.647 39.7239C44.2092 40.7049 43.8637 41.7158 43.6139 42.7464C42.3338 42.9852 41.0045 42.9215 39.7615 42.5619C38.5186 42.2022 37.4067 41.5596 36.5393 40.6994C36.4997 39.6671 36.3982 38.6373 36.2353 37.6144C36.2353 37.6144 47.0503 34.3 44.647 39.7239Z" fill="black"/>
<path d="M41.81 42.8881C45.5485 42.8881 48.5792 39.844 48.5792 36.0888C48.5792 32.3336 45.5485 29.2895 41.81 29.2895C38.0714 29.2895 35.0407 32.3336 35.0407 36.0888C35.0407 39.844 38.0714 42.8881 41.81 42.8881Z" fill="#F8BDC5"/>
<path d="M29.4661 39.2887V41.3177L25.9084 50.2105L24.9374 49.2737C24.8838 49.2183 24.8344 49.1591 24.7897 49.0968C22.4403 45.8763 20.7308 24.4666 20.7308 24.4666L18.4687 6.36365C18.4687 6.36365 16.0433 0.751663 21.3775 1.05816C26.7117 1.36466 22.5097 6.20608 22.5097 6.20608C22.5097 6.20608 26.0673 23.368 25.5818 23.9918C25.0962 24.6156 25.5818 26.4891 25.5818 26.4891C25.5818 26.4891 27.0384 30.0786 26.875 32.7292C26.7117 35.3798 29.4661 39.2887 29.4661 39.2887Z" fill="#F8BDC5"/>
<path d="M69.7133 15.3563L61.2528 32.5062L59.9518 34.84C59.9518 34.84 55.9005 48.5409 51.2212 51.8216C50.9523 52.0141 50.6607 52.1755 50.3524 52.3026L49.3756 44.818L50.2759 42.6438L50.3434 42.4777C51.3873 41.502 52.2168 40.3359 52.7832 39.0482C53.76 36.8654 56.5262 32.4997 56.5262 32.4997C56.5262 32.4997 57.0146 31.253 57.0146 30.3169C57.0146 29.3807 66.2877 13.9456 66.2877 13.9456C66.2877 13.9456 67.1002 6.92908 71.0143 10.3586C74.9283 13.7882 69.7133 15.3563 69.7133 15.3563Z" fill="#F8BDC5"/>
<path d="M36.6335 139.224C36.6335 139.224 30.9583 141.255 31.6256 139.369C32.0319 138.225 31.8818 136.063 31.7018 134.552C31.5863 133.567 31.457 132.849 31.457 132.849L36.3056 133.284C36.1362 133.652 36.0416 134.042 36.0263 134.438C35.867 136.362 36.6335 139.224 36.6335 139.224Z" fill="#F8BDC5"/>
<path d="M45.8627 133.147C44.94 136.033 45.181 141.059 45.181 141.059C45.181 141.059 39.7249 141.692 40.2532 140.425C40.6209 139.548 41.1589 135.202 41.4511 132.647C41.5801 131.531 41.6605 130.757 41.6605 130.757L46.5882 131.708C46.2527 132.145 46.007 132.632 45.8627 133.147V133.147Z" fill="#F8BDC5"/>
<path opacity="0.1" d="M31.457 132.849L36.6335 133.287C36.4525 133.657 36.3516 134.049 36.3352 134.448C35.6275 134.751 34.845 134.919 34.0466 134.939C33.2482 134.959 32.4547 134.83 31.7257 134.563C31.5951 133.569 31.457 132.849 31.457 132.849Z" fill="black"/>
<path opacity="0.1" d="M46.5882 131.967C46.2483 132.524 45.9991 133.146 45.8526 133.804C44.1778 134.111 42.4196 133.572 41.4118 133.167C41.5417 131.743 41.6226 130.757 41.6226 130.757L46.5882 131.967Z" fill="black"/>
<path d="M51.63 96.0511L50.6626 102.493C50.2701 104.939 49.6732 107.35 48.8776 109.706C48.1827 111.831 48.6755 114.452 48.6755 114.452C48.6755 114.452 49.3318 124.433 48.1827 126.929C47.0336 129.425 47.1971 133.011 47.1971 133.011C44.5696 134.415 40.7953 132.698 40.7953 132.698L40.4661 116.167C40.4661 116.167 39.6462 111.801 39.9733 107.753C40.3003 103.706 39.4805 95.4341 39.4805 95.4341C37.6637 95.9023 37.8386 118.67 37.8386 118.67V133.485C33.8985 136.76 30.4512 133.485 30.4512 133.485C29.1386 129.742 29.6314 118.357 29.6314 118.357L29.1386 111.652C29.1386 111.652 27.3219 103.387 26.1864 91.8462C25.8353 88.6039 25.7882 85.3383 26.0456 82.0881C26.0774 81.7342 26.1122 81.3941 26.1501 81.0676C26.3074 79.5917 26.5915 78.1306 26.9994 76.6987C27.1296 76.2266 27.2966 75.7644 27.499 75.3158L45.1374 76.0946L46.1775 76.1399L48.6755 76.25C48.948 76.6405 49.2046 77.0374 49.4431 77.4344C49.7882 78.0105 50.0994 78.5908 50.3764 79.1604C50.5354 79.4926 50.6853 79.827 50.8306 80.1593C54.1848 88.2045 51.63 96.0511 51.63 96.0511Z" fill="#5E52AD"/>
<path opacity="0.1" d="M31.8552 76.3643C31.8552 76.3643 31.1132 84.5853 25.8824 82.206C25.9129 81.8095 25.9464 81.4282 25.9827 81.0623C27.2135 81.4323 30.62 81.9425 30.7488 76.3618L31.8552 76.3643Z" fill="black"/>
<path opacity="0.1" d="M50.5701 80.2093C47.133 81.7471 45.8368 77.6523 45.3937 75.3158L46.342 75.3703C46.8576 79.0449 48.9157 79.2601 50.1684 79.0008C50.3092 79.4105 50.4438 79.8125 50.5701 80.2093Z" fill="black"/>
<path d="M33.7007 138.111C32.8311 137.985 31.5018 137.542 31.919 135.997C31.919 135.997 30.3093 135.483 30.479 141.625C30.479 141.625 30.3093 144.617 29.9676 145.249C29.6259 145.881 29.9676 149.659 33.5451 149.343C33.5451 149.343 36.0999 150.129 36.781 148.87C36.781 148.87 36.2696 141.625 37.1227 140.373C37.9759 139.12 36.781 137.852 36.781 137.852C36.781 137.852 35.5743 138.47 34.707 138.287C34.3771 138.202 34.0377 138.161 33.7007 138.111Z" fill="#5C3D53"/>
<path d="M38.1914 148.574C38.1914 148.574 36.5118 151.32 40.375 151.642C44.2381 151.963 45.9153 150.026 45.9153 150.026C45.9153 150.026 46.4194 149.22 45.9153 147.765C45.4112 146.311 46.0826 143.728 46.0826 143.728C46.0826 143.728 46.5867 140.661 45.4112 141.306C44.2358 141.952 38.1914 148.574 38.1914 148.574Z" fill="#5C3D53"/>
<path opacity="0.05" d="M38.1914 148.574C38.1914 148.574 36.5118 151.32 40.375 151.642C44.2381 151.963 45.9153 150.026 45.9153 150.026C45.9153 150.026 46.4194 149.22 45.9153 147.765C45.4112 146.311 46.0826 143.728 46.0826 143.728C46.0826 143.728 46.5867 140.661 45.4112 141.306C44.2358 141.952 38.1914 148.574 38.1914 148.574Z" fill="black"/>
<path d="M42.6847 139.321C42.6847 139.321 40.6234 138.537 40.1075 140.105C39.5916 141.674 39.9364 145.601 38.9045 146.7C37.8727 147.799 36.4986 150.782 40.6234 150.626C44.7483 150.469 45.616 149.211 45.616 149.211C45.616 149.211 45.4448 145.286 45.9608 144.187C46.4767 143.088 45.9608 141.363 45.9608 141.363C45.9608 141.363 46.12 139.154 42.6847 139.321Z" fill="#5C3D53"/>
<path opacity="0.2" d="M24.8869 10.4605C24.9968 10.4605 25.086 10.2263 25.086 9.93749C25.086 9.64863 24.9968 9.41446 24.8869 9.41446C24.7769 9.41446 24.6878 9.64863 24.6878 9.93749C24.6878 10.2263 24.7769 10.4605 24.8869 10.4605Z" fill="black"/>
<path d="M24.6871 10.4605H24.5334C24.5334 10.3947 24.6423 3.92562 20.9031 3.32942C20.1664 3.21273 19.5642 3.37822 19.1136 3.82166C17.5697 5.34293 18.2082 9.63942 18.2146 9.68185L18.063 9.70519C18.0352 9.52484 17.4074 5.28777 19.0068 3.71345C19.4937 3.23182 20.1429 3.05148 20.9287 3.17666C24.7982 3.79196 24.6893 10.3947 24.6871 10.4605Z" fill="#535461"/>
<path d="M70.8699 18.829L70.7455 18.7616C70.7665 18.7095 72.8983 13.4696 70.0815 11.6434L70.1503 11.5066C73.0762 13.4045 70.8928 18.7747 70.8699 18.829Z" fill="#535461"/>
<path opacity="0.1" d="M43.0045 48.9095L39.1207 50.0445C39.1207 50.0445 32.6967 51.018 35.2369 48.25C36.1154 47.2967 36.5474 45.6614 36.7355 43.9342C37.7503 45.6614 38.9719 45.1702 38.9719 45.1702L42.6759 45.0917H42.6903C42.5601 47.5187 43.0045 48.9095 43.0045 48.9095Z" fill="black"/>
<path opacity="0.1" d="M51.2514 51.8417C50.9781 52.0261 50.6817 52.1808 50.3684 52.3026L49.3756 45.1307L50.2906 43.0473L50.5194 42.8882C52.5851 43.4193 51.5191 50.2895 51.2514 51.8417Z" fill="black"/>
<path opacity="0.1" d="M29.4661 38.7039V40.8415L25.8309 50.2105L24.8387 49.2236C24.7839 49.1651 24.7335 49.1028 24.6878 49.0371C25.1176 44.1525 29.4661 38.7039 29.4661 38.7039Z" fill="black"/>
<path opacity="0.1" d="M49.3756 77.0296C47.0942 77.4711 35.1845 79.6351 31.6508 77.5863C30.2563 76.7783 28.6136 76.4816 27.0769 76.4345C27.2063 76.0526 27.3722 75.6786 27.5733 75.3158L45.0995 75.9458L46.133 75.9825L48.6151 76.0715C48.8859 76.3891 49.1386 76.7084 49.3756 77.0296Z" fill="black"/>
<path d="M18.3167 2.0921C18.3167 2.0921 20.9443 6.79934 22.6968 2.0921Z" fill="#F8BDC5"/>
<path d="M69.3707 10.4605C69.3707 10.4605 68.6016 15.2337 71.6742 13.0067Z" fill="#F8BDC5"/>
<g opacity="0.1">
<path opacity="0.1" d="M38.5988 96.635C38.5191 95.6883 38.46 95.0966 38.46 95.0966C36.6396 95.5635 36.8148 118.269 36.8148 118.269V133.044C35.6589 133.999 34.5394 134.395 33.5496 134.479C34.7374 134.578 36.1527 134.264 37.6454 133.044V118.269C37.6454 118.269 37.5179 101.816 38.5988 96.635Z" fill="black"/>
<path opacity="0.1" d="M50.6447 79.8701C50.5059 79.5387 50.358 79.2052 50.1896 78.8739C49.912 78.2973 49.6003 77.7185 49.2544 77.1527C49.0269 76.7568 48.7584 76.363 48.4854 75.9715L45.9824 75.8617L44.9403 75.8165L27.2673 75.0398L27.2513 75.0743L44.1189 75.8165L45.161 75.8617L47.6639 75.9715C47.937 76.3609 48.1941 76.7568 48.433 77.1527C48.7789 77.7271 49.0906 78.3059 49.3682 78.8739C49.5275 79.2052 49.6777 79.5387 49.8233 79.8701C53.1863 87.8954 50.6333 95.7163 50.6333 95.7163L49.664 102.141C49.2708 104.579 48.6727 106.985 47.8755 109.333C47.1793 111.453 47.673 114.067 47.673 114.067C47.673 114.067 48.3306 124.02 47.1793 126.509C46.0279 128.999 46.1918 132.575 46.1918 132.575C45.5564 132.899 44.8516 133.083 44.1302 133.112C45.1258 133.197 46.1262 133.011 47.0132 132.575C47.0132 132.575 46.8493 128.997 48.0007 126.509C49.1521 124.022 48.4945 114.067 48.4945 114.067C48.4945 114.067 48.0007 111.451 48.697 109.333C49.4941 106.985 50.0922 104.579 50.4854 102.141L51.4548 95.7163C51.4548 95.7163 54.0078 87.8911 50.6447 79.8701Z" fill="black"/>
</g>
<path d="M42.5822 45.0118C44.8466 46.0282 50.1455 42.1244 50.1455 42.1244C52.4371 42.748 50.7999 51.7965 50.7999 51.7965L50.7116 52.172C50.2134 54.3062 49.9122 56.475 49.6337 58.6459C49.4231 60.2839 47.8538 61.7815 47.8538 61.7815C45.0708 66.7729 49.4911 76.6004 49.4911 76.6004C49.4911 76.6004 35.2498 80.1892 31.3232 77.3795C27.3967 74.5698 21.5023 76.7558 21.5023 76.7558C24.2853 74.4165 24.4461 59.9084 24.4461 59.9084V48.6868C24.7744 44.0061 29.2014 38.7039 29.2014 38.7039C31.013 43.54 36.0469 43.8594 36.0469 43.8594C37.1633 45.5858 38.5378 45.1002 38.5378 45.1002L42.5822 45.0118Z" fill="#EB6475"/>
<path opacity="0.1" d="M39.9991 26.2371C39.4481 26.1227 38.8779 26.1227 38.327 26.2371C36.5817 26.6975 36.0332 28.8001 34.6854 29.9544C34.2013 30.3787 33.604 30.663 33.1643 31.1234C32.3827 31.9424 32.2251 33.1561 32.3916 34.253C32.5581 35.3499 33.0022 36.3896 33.2798 37.4653C33.5539 38.5421 33.6579 39.652 33.5884 40.7582C33.5946 41.1254 33.4914 41.4867 33.2909 41.8C32.9689 42.2243 32.3761 42.358 31.9586 42.6975C30.684 43.7456 31.7365 45.9204 30.8017 47.2592C30.3998 47.8384 29.647 48.2203 29.4938 48.8993C29.385 49.3809 29.6159 49.8668 29.8424 50.3102C30.4375 51.4772 31.0548 52.6759 32.063 53.5458C33.0711 54.4158 34.3168 54.8528 35.5558 55.2963C35.9311 55.4299 36.4018 55.5466 36.6883 55.2814C37.0413 54.9504 36.7749 54.3903 36.5306 53.9808C36.1443 53.3443 35.8423 52.5762 36.0688 51.8591C36.2953 51.1419 37.0214 50.6667 37.5099 50.0683C38.7689 48.5195 38.3559 46.2959 37.7319 44.4288C37.4677 43.6416 37.1701 42.8035 37.3944 42.0037C37.4899 41.6599 37.6786 41.348 37.7985 41.0107C38.3315 39.5085 37.4366 37.8599 37.6986 36.2941C37.8349 35.6826 38.0591 35.0921 38.3648 34.5394L39.7748 31.6433C39.9167 31.2947 40.1287 30.9761 40.3988 30.7055C40.8369 30.3688 41.3924 30.2035 41.9531 30.2429C42.5247 30.2551 43.0877 30.3782 43.608 30.6047C44.1283 30.8312 44.595 31.1564 44.9797 31.5605C46.4896 33.1645 46.3942 35.5918 46.2121 37.7305L46.0811 39.2751C45.9856 40.3869 45.859 41.5729 45.1262 42.4386C44.5556 43.1091 43.634 43.5653 43.3987 44.4012C43.1944 45.1205 43.5785 45.9013 43.3765 46.6205C43.0745 47.6963 41.6844 48.0845 40.9495 48.9544C40.6403 49.3325 40.4576 49.7908 40.4251 50.2696C40.3926 50.7484 40.5119 51.2254 40.7674 51.6384C41.0472 52.0628 41.4935 52.4871 41.4335 52.9857C41.3824 53.3867 41.005 53.7113 41.0072 54.1145C41.0253 54.2949 41.1001 54.4658 41.2217 54.6048C41.3434 54.7437 41.5063 54.8443 41.6889 54.8931C42.0565 54.9841 42.4397 55.0014 42.8147 54.9441L46.7961 54.6003C47.0454 54.5994 47.2899 54.535 47.5044 54.4136C47.782 54.2227 47.873 53.8705 47.9108 53.5458C48.0706 52.1922 47.6887 50.7133 48.397 49.5294C48.6191 49.1496 48.9455 48.8335 49.192 48.4686C50.5509 46.4317 49.1809 43.6692 49.9203 41.3586C50.2712 40.2617 51.0883 39.3197 51.3059 38.193C51.5946 36.6909 50.7752 35.2226 50.4577 33.7374C50.1313 32.2034 50.3067 30.5145 49.4496 29.1799C48.7945 28.1615 47.6221 27.5271 46.4097 27.2364C45.2994 26.9691 44.1892 27.0646 43.0789 26.95C42.0175 26.8333 41.0316 26.3962 39.9991 26.2371Z" fill="black"/>
<path d="M39.9991 26.2371C39.4481 26.1227 38.8779 26.1227 38.327 26.2371C36.5817 26.6975 36.0332 28.8001 34.6854 29.9544C34.2013 30.3787 33.604 30.663 33.1643 31.1234C32.3827 31.9424 32.2251 33.1561 32.3916 34.253C32.5581 35.3499 33.0022 36.3896 33.2798 37.4653C33.5539 38.5421 33.6579 39.652 33.5884 40.7582C33.5946 41.1254 33.4914 41.4867 33.2909 41.8C32.9689 42.2243 32.3761 42.358 31.9586 42.6975C30.684 43.7456 31.7365 45.9204 30.8017 47.2592C30.3998 47.8384 29.647 48.2203 29.4938 48.8993C29.385 49.3809 29.6159 49.8668 29.8424 50.3102C30.4375 51.4772 31.0548 52.6759 32.063 53.5459C33.0711 54.4158 34.3168 54.8528 35.5558 55.2963C35.9311 55.4299 36.4018 55.5466 36.6883 55.2814C37.0413 54.9504 36.7749 54.3903 36.5306 53.9808C36.1443 53.3443 35.8423 52.5762 36.0688 51.8591C36.2953 51.1419 37.0214 50.6667 37.5099 50.0683C38.7689 48.5195 38.3559 46.2959 37.7319 44.4288C37.4677 43.6416 37.1701 42.8035 37.3944 42.0037C37.4899 41.6599 37.6786 41.348 37.7985 41.0107C38.3315 39.5085 37.4366 37.8599 37.6986 36.2941C37.8349 35.6826 38.0591 35.0921 38.3648 34.5394L39.7748 31.6433C39.9167 31.2947 40.1287 30.9761 40.3988 30.7055C40.8369 30.3688 41.3924 30.2035 41.9531 30.2429C42.5247 30.2551 43.0877 30.3782 43.608 30.6047C44.1283 30.8312 44.595 31.1564 44.9797 31.5605C46.4896 33.1645 46.3942 35.5918 46.2121 37.7305L46.0811 39.2751C45.9856 40.3869 45.859 41.5729 45.1262 42.4386C44.5556 43.1091 43.634 43.5652 43.3987 44.4012C43.1944 45.1205 43.5785 45.9013 43.3765 46.6205C43.0745 47.6962 41.6844 48.0845 40.9495 48.9544C40.6403 49.3325 40.4576 49.7908 40.4251 50.2696C40.3926 50.7484 40.5119 51.2254 40.7674 51.6384C41.0472 52.0628 41.4935 52.4871 41.4335 52.9857C41.3824 53.3867 41.005 53.7113 41.0072 54.1145C41.0253 54.2948 41.1001 54.4658 41.2217 54.6048C41.3434 54.7437 41.5063 54.8443 41.6889 54.8931C42.0565 54.9841 42.4397 55.0014 42.8147 54.9441L46.7961 54.6004C47.0454 54.5994 47.2899 54.535 47.5044 54.4136C47.782 54.2227 47.873 53.8705 47.9108 53.5459C48.0706 52.1922 47.6887 50.7133 48.397 49.5294C48.6191 49.1496 48.9455 48.8335 49.192 48.4686C50.5509 46.4317 49.1809 43.6692 49.9203 41.3587C50.2712 40.2617 51.0883 39.3197 51.3059 38.193C51.5946 36.6908 50.7752 35.2226 50.4577 33.7374C50.1313 32.2034 50.3067 30.5145 49.4496 29.1799C48.7945 28.1615 47.6221 27.5271 46.4097 27.2364C45.2994 26.9691 44.1892 27.0646 43.0789 26.95C42.0175 26.8354 41.0316 26.3984 39.9991 26.2371Z" fill="#774E55"/>
<path opacity="0.1" d="M31.0588 61.4424C31.0588 61.4424 34.3529 62.104 39.1278 60.6711H41.595C41.595 60.6711 41.759 62.2138 48.181 61.5522" fill="black"/>
<g opacity="0.1">
<path opacity="0.1" d="M77.4515 142.732C77.4515 142.732 76.265 126.948 78.7084 116.13C79.7441 111.61 80.1934 106.33 79.9891 101.082C79.8837 98.5929 79.6917 96.1342 79.4155 93.7368" stroke="#535461" stroke-width="2" stroke-miterlimit="10"/>
<path opacity="0.1" d="M80.9411 86.8949C80.8756 88.7775 79.3843 93.9262 79.3843 93.9262C79.3843 93.9262 78.2766 88.1514 78.3429 86.2667C78.3811 85.376 78.5507 84.5601 78.8153 83.9941C79.08 83.428 79.4185 83.1569 79.7584 83.2388C80.0983 83.3207 80.4124 83.7492 80.6334 84.4323C80.8543 85.1154 80.9645 85.9988 80.9403 86.8928L80.9411 86.8949Z" fill="#F5550A"/>
<path opacity="0.1" d="M82.7233 97.8463C82.2784 99.333 79.962 101.53 79.962 101.53C79.962 101.53 80.2275 95.1009 80.6724 93.6142C80.7752 93.239 80.9058 92.9223 81.0565 92.6831C81.2071 92.444 81.3746 92.2874 81.5489 92.2228C81.7232 92.1582 81.9007 92.1868 82.0707 92.3071C82.2406 92.4273 82.3996 92.6367 82.5379 92.9225C82.6762 93.2083 82.7911 93.5647 82.8756 93.9702C82.9601 94.3757 83.0125 94.8218 83.0296 95.2819C83.0467 95.7419 83.0281 96.2063 82.9751 96.647C82.922 97.0877 82.8355 97.4957 82.7208 97.8463H82.7233Z" fill="#F5550A"/>
<path opacity="0.1" d="M82.0055 115.646C81.3353 116.339 78.914 115.164 78.914 115.164C78.914 115.164 80.3791 109.966 81.0493 109.273C81.3698 108.957 81.7248 108.984 82.0377 109.349C82.3507 109.714 82.5964 110.387 82.7219 111.224C82.8474 112.06 82.8426 112.993 82.7086 113.82C82.5746 114.648 82.3221 115.303 82.0055 115.646V115.646Z" fill="#F5550A"/>
<path opacity="0.1" d="M80.307 128.803C79.6908 129.784 77.2286 129.7 77.2286 129.7C77.2286 129.7 78.338 123.927 78.9542 122.946C79.1007 122.704 79.2641 122.541 79.4349 122.466C79.6056 122.392 79.7804 122.407 79.9488 122.512C80.1173 122.616 80.2762 122.808 80.4162 123.075C80.5562 123.342 80.6746 123.68 80.7643 124.069C80.8541 124.458 80.9135 124.889 80.9391 125.339C80.9647 125.788 80.956 126.247 80.9134 126.688C80.8708 127.128 80.7953 127.542 80.6912 127.905C80.5871 128.269 80.4564 128.574 80.307 128.803V128.803Z" fill="#F5550A"/>
<path opacity="0.1" d="M77.222 101.231C77.6907 102.668 80.0399 104.604 80.0399 104.604C80.0399 104.604 79.6711 98.21 79.2033 96.7749C79.0927 96.4259 78.9568 96.1381 78.8036 95.9282C78.6503 95.7183 78.4826 95.5906 78.3103 95.5523C78.1381 95.5141 77.9646 95.5662 77.8001 95.7055C77.6356 95.8448 77.4832 96.0686 77.3519 96.3639C77.2206 96.6592 77.113 97.0201 77.0353 97.4256C76.9576 97.8311 76.9113 98.2731 76.8992 98.726C76.8871 99.1788 76.9095 99.6335 76.9649 100.063C77.0203 100.493 77.1077 100.89 77.222 101.231V101.231Z" fill="#F5550A"/>
<path opacity="0.1" d="M75.3096 116.683C75.9201 117.686 78.3831 117.688 78.3831 117.688C78.3831 117.688 77.3032 111.879 76.6919 110.874C76.5466 110.628 76.3842 110.461 76.2141 110.381C76.044 110.302 75.8695 110.312 75.7009 110.411C75.5323 110.51 75.3728 110.696 75.2318 110.959C75.0908 111.221 74.971 111.554 74.8794 111.939C74.7879 112.324 74.7263 112.752 74.6984 113.2C74.6705 113.648 74.6767 114.106 74.7167 114.547C74.7568 114.989 74.8298 115.405 74.9316 115.771C75.0334 116.138 75.1619 116.448 75.3096 116.683V116.683Z" fill="#F5550A"/>
<path opacity="0.1" d="M74.2346 132.366C74.7721 133.625 77.1991 134.722 77.1991 134.722C77.1991 134.722 76.5084 128.515 75.9701 127.256C75.8434 126.939 75.6938 126.692 75.5301 126.53C75.3664 126.368 75.1919 126.294 75.0171 126.312C74.8423 126.331 74.6707 126.442 74.5125 126.638C74.3543 126.834 74.2127 127.112 74.0963 127.455C73.9798 127.798 73.8908 128.199 73.8346 128.634C73.7784 129.069 73.7561 129.529 73.769 129.987C73.7819 130.446 73.8297 130.892 73.9097 131.301C73.9897 131.71 74.1002 132.072 74.2346 132.366V132.366Z" fill="#F5550A"/>
</g>
<g opacity="0.1">
<path opacity="0.1" d="M69.9879 115.164C69.7486 115.962 68.5048 117.141 68.5048 117.141C68.5048 117.141 68.6474 113.699 68.8866 112.892C69.0034 112.525 69.1701 112.292 69.3512 112.242C69.5324 112.192 69.7139 112.329 69.8571 112.625C70.0003 112.921 70.0941 113.351 70.1185 113.825C70.1429 114.299 70.0961 114.779 69.9879 115.164V115.164Z" fill="#F5550A"/>
<path opacity="0.1" d="M69.6028 124.726C69.2431 125.098 67.9427 124.468 67.9427 124.468C67.9427 124.468 68.7293 121.67 69.0898 121.305C69.2612 121.143 69.4497 121.164 69.6154 121.361C69.7812 121.558 69.9112 121.917 69.978 122.362C70.0448 122.806 70.043 123.301 69.9731 123.743C69.9033 124.184 69.7707 124.537 69.6036 124.726H69.6028Z" fill="#F5550A"/>
</g>
<g opacity="0.1">
<path opacity="0.1" d="M17.7368 126.017C17.3771 126.389 16.0768 125.758 16.0768 125.758C16.0768 125.758 16.8634 122.961 17.2239 122.596C17.3952 122.434 17.5837 122.454 17.7495 122.652C17.9153 122.849 18.0453 123.208 18.1121 123.652C18.1788 124.097 18.1771 124.592 18.1072 125.034C18.0373 125.475 17.9048 125.827 17.7376 126.017H17.7368Z" fill="#F5550A"/>
<path opacity="0.1" d="M16.8249 133.074C16.4971 133.601 15.1722 133.556 15.1722 133.556C15.1722 133.556 15.7679 130.455 16.0989 129.928C16.1776 129.796 16.2656 129.707 16.3576 129.665C16.4497 129.624 16.544 129.631 16.635 129.687C16.7259 129.742 16.8118 129.845 16.8874 129.989C16.963 130.133 17.0269 130.315 17.0753 130.525C17.1237 130.735 17.1557 130.968 17.1693 131.21C17.1829 131.453 17.1779 131.7 17.1545 131.938C17.1312 132.175 17.09 132.398 17.0334 132.593C16.9768 132.788 16.9059 132.952 16.8249 133.074V133.074Z" fill="#F5550A"/>
<path opacity="0.1" d="M14.1415 126.57C14.4692 127.107 15.7917 127.11 15.7917 127.11C15.7917 127.11 15.2115 123.99 14.8838 123.452C14.7263 123.203 14.5379 123.126 14.3591 123.239C14.1803 123.351 14.0255 123.643 13.9281 124.053C13.8307 124.462 13.7985 124.956 13.8384 125.427C13.8783 125.898 13.9871 126.309 14.1415 126.572V126.57Z" fill="#F5550A"/>
<path opacity="0.1" d="M13.5654 134.991C13.8539 135.666 15.1575 136.256 15.1575 136.256C15.1575 136.256 14.7871 132.923 14.502 132.248C14.3628 131.933 14.1821 131.774 13.9988 131.806C13.8155 131.838 13.6443 132.057 13.522 132.417C13.3997 132.777 13.3362 133.249 13.3451 133.731C13.354 134.212 13.4346 134.666 13.5695 134.993L13.5654 134.991Z" fill="#F5550A"/>
</g>
</svg>
