<?xml version="1.0" encoding="iso-8859-1"?>
<!-- Generator: Adobe Illustrator 21.0.0, SVG Export Plug-In . SVG Version: 6.00 Build 0)  -->
<svg xmlns="http://www.w3.org/2000/svg" xmlns:xlink="http://www.w3.org/1999/xlink" version="1.1" id="Capa_1" x="0px" y="0px" viewBox="0 0 512 512" style="enable-background:new 0 0 512 512;" xml:space="preserve" width="512" height="512">
<g>
	<g>
		<circle style="fill:#FA5D0F;" cx="256" cy="256" r="256"/>
	</g>
	<path style="fill:#D13400;" d="M331.287,500.74c75.147-23.09,135.549-79.837,163.633-152.653L273.192,126.36L104.01,262   l127.779,127.779l-6.25,5.213L331.287,500.74z"/>
	<g>
		<path style="fill:#BEC3D2;" d="M323.348,424.752c54.177,0,98.096-43.919,98.096-98.096s-43.919-98.096-98.096-98.096h-27.441    v196.193H323.348z"/>
	</g>
	<g>
		<circle style="fill:#E9EDF5;" cx="295.907" cy="326.656" r="98.096"/>
	</g>
	<g>
		<path style="fill:#CDD2E1;" d="M295.907,228.559c-0.144,0-0.287,0.005-0.431,0.005v196.182c0.144,0.001,0.287,0.006,0.431,0.006    c54.177,0,98.096-43.919,98.096-98.096S350.084,228.559,295.907,228.559z"/>
	</g>
	<g>
		<path style="fill:#FFFFFF;" d="M295.907,401.592c-21.605,0-41.405-12.692-50.442-32.335l25.438-11.703    c4.482,9.743,14.297,16.038,25.005,16.038c10.707,0,20.521-6.295,25.004-16.038l25.438,11.703    C337.312,388.899,317.512,401.592,295.907,401.592z"/>
	</g>
	<g>
		<path style="fill:#E9EDF5;" d="M320.911,357.554c-4.482,9.743-14.297,16.038-25.004,16.038c-0.145,0-0.287-0.013-0.431-0.016    v28.008c0.144,0.001,0.287,0.008,0.431,0.008c21.604,0,41.404-12.692,50.441-32.335L320.911,357.554z"/>
	</g>
	<g>
		<g>
			<circle style="fill:#E9EDF5;" cx="340.727" cy="310.083" r="14.117"/>
		</g>
		<g>
			<circle style="fill:#FFFFFF;" cx="251.087" cy="310.083" r="14.117"/>
		</g>
	</g>
	<g>
		<path style="fill:#BEC3D2;" d="M202.537,292.499c54.177,0,98.096-43.919,98.096-98.096s-43.919-98.096-98.096-98.096h-27.441    v196.193H202.537z"/>
	</g>
	<g>
		<circle style="fill:#E9EDF5;" cx="175.096" cy="194.403" r="98.096"/>
	</g>
	<g>
		<path style="fill:#CDD2E1;" d="M175.096,96.306c-0.151,0-0.302,0.005-0.453,0.006v196.181c0.152,0.001,0.302,0.006,0.453,0.006    c54.177,0,98.096-43.919,98.096-98.096C273.192,140.226,229.273,96.306,175.096,96.306z"/>
	</g>
	<g>
		<path style="fill:#FFFFFF;" d="M175.097,269.339c-21.605,0-41.405-12.692-50.442-32.335l25.438-11.703    c4.482,9.743,14.297,16.038,25.005,16.038c10.707,0,20.521-6.295,25.004-16.038l25.438,11.703    C216.501,256.647,196.701,269.339,175.097,269.339z"/>
	</g>
	<g>
		<path style="fill:#E9EDF5;" d="M200.101,225.301c-4.482,9.743-14.297,16.038-25.004,16.038c-0.152,0-0.302-0.014-0.454-0.017    v28.008c0.152,0.001,0.302,0.008,0.454,0.008c21.604,0,41.404-12.692,50.441-32.335L200.101,225.301z"/>
	</g>
	<g>
		<g>
			<circle style="fill:#E9EDF5;" cx="219.916" cy="177.831" r="14.117"/>
		</g>
		<g>
			<circle style="fill:#FFFFFF;" cx="130.276" cy="177.831" r="14.117"/>
		</g>
	</g>
</g>















</svg>
