<svg width="88" height="159" viewBox="0 0 88 159" fill="none" xmlns="http://www.w3.org/2000/svg">
<g clip-path="url(#clip0)">
<path d="M92.5294 154H0V155H92.5294V154Z" fill="#3F3D56"/>
<path d="M58.5086 49.7135C58.7736 50.5229 59.0083 51.2946 59.2059 51.958L59.0827 52C58.9293 51.3853 58.7341 50.5892 58.5086 49.7135ZM51.1548 30.0111L51.1176 30.031L51.1525 30L51.1548 30.0111Z" />
<path d="M41.9254 146.065C40.5236 146.527 39.4706 155.377 39.4706 155.377L48.1872 157.588C48.1872 157.588 54.3006 158.515 57.2053 157.588C60.1101 156.662 60.0111 154.09 55.8531 153.679C51.695 153.267 48.7384 147.763 48.7384 147.763C48.7384 147.763 43.3271 145.603 41.9254 146.065Z" fill="#2F2E41"/>
<path d="M31.6524 147.624C31.6735 148.316 31.5584 149.005 31.3137 149.652C30.6125 151.769 30.3157 154 30.4389 156.227C30.4577 156.493 30.4789 156.772 30.5024 157.063C30.8034 160.526 39.1494 158.371 39.7044 157.967C40.2594 157.563 38.0582 147.624 38.0582 147.624C38.0582 147.624 31.5136 146.22 31.6524 147.624Z" fill="#2F2E41"/>
<path d="M40.7647 27.3602C40.7669 27.3629 40.7685 27.3659 40.7695 27.3691C40.9477 27.7782 47.5692 42.9716 46.3718 38.0027C46.3361 37.8549 46.3122 37.7048 46.3005 37.5537C46.1983 36.3331 46.8137 34.9903 47.8044 33.6564C48.4359 32.8228 49.1374 32.0378 49.9023 31.3087C50.2848 30.9374 50.6816 30.575 51.0831 30.2237C52.1855 29.2567 53.3331 28.3718 54.3499 27.6337C56.177 26.2998 57.5882 25.4528 57.5882 25.4528C57.5882 25.4528 44.7823 11.4821 45.6899 17.5092C45.9394 19.1611 46.98 20.8085 46.2744 22.338C45.8113 23.3072 45.1549 24.1847 44.3404 24.9236C43.6973 25.5188 42.9965 26.0569 42.2472 26.531C41.9265 26.7333 41.6366 26.9023 41.4014 27.0312C41.0094 27.2469 40.7647 27.3602 40.7647 27.3602Z" fill="#FFB9B9"/>
<path d="M84.4494 45.625C84.4494 45.625 84.9413 45.3554 85.6838 45.0333C87.8672 44.0967 92.2269 42.7261 92.7768 46.4999C93.517 51.5621 88.6143 50.9796 88.6143 50.9796C87.6451 50.6175 86.6521 50.3206 85.642 50.091C85.1455 49.959 84.627 49.9271 84.1176 49.9973L84.4494 45.625Z" fill="#FFB9B9"/>
<path d="M83.4706 50H84.9644C85.8334 48.9583 85.1687 45 85.1687 45L83.8699 45.2083L83.4706 50Z" fill="#E6E6E6"/>
<path d="M56.9412 57.4275L57.1887 69.9637L58.8235 75.8754C58.8235 75.8754 59.6268 81.5965 60.6123 81.119C61.5979 80.6415 65.8015 82 65.8015 82L66 79.8792L64.5848 67.4148L63.4918 61.1937C63.4918 61.1937 62.8706 56.3066 62.3989 53.446C61.9271 50.5855 57.9804 52.8519 57.9804 52.8519L56.9412 57.4275Z" fill="#2F2E41"/>
<path d="M61.7373 51.6526C64.426 50.8969 67.8963 51.6526 67.8963 51.6526L83.5747 52C86.3734 48.294 84.4335 44.8134 84.4335 44.8134C84.4335 44.8134 76.7441 44.5106 70.5125 43.5765C64.2809 42.6424 60.1765 38 60.1765 38L61.7373 51.6526Z" fill="#2F2E41"/>
<path opacity="0.1" d="M45.6638 17.4257C44.7542 11.7323 57.5882 24.9293 57.5882 24.9293C57.5882 24.9293 56.1739 25.7294 54.3428 26.9895C54.1738 27 54.0047 27 53.8309 27C49.9045 27 47.1972 24.8327 45.64 21.8926C46.2662 20.5842 45.9448 19.1687 45.6638 17.4257Z" fill="black"/>
<path d="M44.6471 18.9854C44.6513 16.8654 45.5742 14.8336 47.2131 13.3363C48.8519 11.839 51.0727 10.9987 53.3876 11C55.7025 11.0013 57.9222 11.844 59.5591 13.3431C61.196 14.8422 62.1162 16.8751 62.1177 18.9951C62.1191 21.1152 61.2016 23.149 59.5667 24.65C57.9318 26.1509 55.7132 26.9961 53.3983 27C51.0834 27.0039 48.8615 26.1661 47.2206 24.6706C45.5798 23.1752 44.6541 21.1444 44.6471 19.0243C44.6471 19.0114 44.6471 18.9984 44.6471 18.9854Z" fill="#FFB9B9"/>
<path d="M40.3519 54.6198L40.8259 27L45.8901 29.5248L50.0918 30.4725L51.1558 29.8813L51.2317 29.8385L51.4047 29.7437C51.4047 29.7437 51.4615 29.861 51.5705 30.0754C52.49 31.9278 56.9642 40.987 56.8694 41.7632C56.7699 42.6251 60.0615 53.4914 60.0615 53.4914L58.4738 63.7827C58.4738 63.7827 61.4858 70.9308 60.6895 73.5707C59.8933 76.2106 38.1765 74.3852 38.1765 74.3852L40.3519 54.6198Z" fill="#E6E6E6"/>
<path d="M48.8529 31.5687L50.5196 33.6112L50.7888 34.2079C51.7302 36.3119 52.2708 38.5594 52.3853 40.8447V43.495L52.7341 64.7352L54.6512 68L55 63.9598L54.2299 41.2224L53.1835 36.0827L52.6123 32.8269C52.3057 32.2582 52.039 31.6707 51.8141 31.0682C51.243 29.6671 49.7729 30.047 49.7729 30.047L48.8529 31.5687Z" fill="#2F2E41"/>
<path d="M41.4118 26.9076L41.4621 27.0161L41.8188 27.7944L42.2211 28.6642C42.693 28.9312 43.1327 29.2404 43.5334 29.5872C44.8935 30.6718 46.8667 32.4156 47.9155 33.3535C48.3585 33.749 48.6363 34 48.6363 34C49.156 33.5895 49.678 32.2179 50.03 31.1077C50.0875 30.9312 50.1377 30.7611 50.1856 30.6037C50.3628 30.0019 50.4706 29.568 50.4706 29.568C49.1368 29.1448 46.0238 26.4419 44.4242 25C43.776 25.5693 43.0698 26.084 42.3145 26.5376C42.2235 26.3121 41.4118 26.9076 41.4118 26.9076Z" fill="#E6E6E6"/>
<path d="M52.4443 30.6738C53.4125 31.2464 54.9868 31.9921 56.7329 32.0774C56.7329 32.0774 60.5154 34.0133 61.2167 40.6385C61.9179 47.2637 64.8807 67.1775 64.8807 67.1775C64.8807 67.1775 67.5185 80.6053 65.6609 82L63.5874 65.5628C63.5874 65.5628 59.9582 56.0696 59.6958 54.3134C59.4636 52.7144 56.5774 43.9713 56.0712 42.4397C56.0201 42.2959 55.9946 42.2151 55.9946 42.2151L53.1084 34.321L51.4412 30C51.7595 30.2462 52.0946 30.4713 52.4443 30.6738Z" fill="#2F2E41"/>
<path d="M31.3663 122.17C31.3663 122.17 34.3164 102.517 33.5166 99.8657C32.7167 97.2139 34.0671 77.6159 34.0671 77.6159L34.5117 73.9402L34.7611 71.8673L34.867 71L35.3822 71.1521C40.3545 72.55 45.4618 73.4537 50.6245 73.8493C51.7688 73.9244 52.9184 73.8357 54.0358 73.586C56.0778 73.1364 60.0254 72.5847 60.7147 72.1125C60.7147 72.1125 60.95 72.7232 61.2441 73.7222C61.9216 76.0312 62.9426 80.4448 62.1569 84.2046L60.9547 91.8081C60.9547 91.8081 60.4818 99.5569 58.9291 104.193L57.5552 110.516L55.7531 123.405C54.8635 126.84 54.2197 130.329 53.8264 133.849C53.17 139.693 49.4223 149.387 49.4223 149.387C49.4223 149.387 41.4565 150.45 41.2212 147.843L43.9738 127.517L46.524 98.4058C46.524 98.4058 43.7597 116.569 42.1717 120.481C42.1717 120.481 39.9697 142.778 39.2192 146.213C38.4687 149.648 37.97 150.557 37.97 150.557C37.97 150.557 33.3166 152.2 31.2157 149.158C31.2157 149.158 30.6158 140.133 30.1665 136.898C29.7148 133.658 31.3663 122.17 31.3663 122.17Z" fill="#2F2E41"/>
<path d="M34.9189 78L38.1765 79.4232L34.293 86C32.8341 84.7774 33.0063 79.9123 33.0063 79.9123L34.9189 78Z" fill="#FFB9B9"/>
<path d="M36.3822 78L37.8529 79.1301L35.8933 82.0393L33.2215 83L33 81.0763L36.3822 78Z" fill="#E6E6E6"/>
<g opacity="0.1">
<path opacity="0.1" d="M18.9972 71.7143C18.9948 71.7044 18.9933 71.6927 18.9928 71.6803C18.9796 71.7071 18.9658 71.7313 18.9516 71.7529L18.9972 71.7143Z" fill="black"/>
</g>
<path d="M23.6176 81.5973C25.4145 83.6349 33.2479 84 33.2479 84L39.3526 74.6541L40.9991 72.1351C40.9991 72.1351 42.8336 70.8984 46.2817 65.3287C49.7298 59.7591 49.6123 55.4694 49.4221 52.2659C49.2318 49.0624 47.0732 39.8556 47.0732 39.8556C46.8618 38.9257 46.5975 38.0078 46.2817 37.1062C45.5324 34.8108 44.3979 31.6209 43.4701 29.0654C43.3033 28.6045 43.1436 28.1641 42.9909 27.7534C42.7091 26.9731 44.1419 24 44.1419 24C43.6369 24.9834 40.4565 26.6011 39.3502 27.2788C36.3672 29.1042 32.2027 29.8526 32.2027 29.8526C25.4968 30.7995 26.7346 37.5306 26.7346 37.5306C26.7346 37.5306 26.6594 63.695 27.0728 66.8255C27.4862 69.9561 23.6176 81.5973 23.6176 81.5973Z" fill="#2F2E41"/>
<path opacity="0.1" d="M27.0551 38.3273C27.0551 38.3273 24.2126 50.1896 23.427 57.5201C22.6413 64.8506 25.5964 69.522 25.5964 69.522L31.9168 83C34.0862 82.4637 38.5 78.0424 38.5 78.0424L32.1678 61.1865C32.1678 61.1865 34.5154 52.6751 35.9835 44.8353C37.4517 36.9955 33.5609 33.4779 33.5609 33.4779C27.0528 31.1072 27.0551 38.3273 27.0551 38.3273Z" fill="black"/>
<path d="M26.7287 38.3273C26.7287 38.3273 23.8884 50.1896 23.1034 57.5201C22.3183 64.8506 25.271 69.522 25.271 69.522L31.5984 83C33.7661 82.4637 38.1765 78.0424 38.1765 78.0424L31.8491 61.1865C31.8491 61.1865 34.1973 52.6751 35.6596 44.8353C37.1219 36.9955 33.2318 33.4779 33.2318 33.4779C26.7287 31.1072 26.7287 38.3273 26.7287 38.3273Z" fill="#2F2E41"/>
<path d="M39.1471 79.9159L37.4111 85.0109L35.4768 87.7345C35.4768 87.7345 34.0278 88.7286 33.6661 86.8697C33.3045 85.0109 38.2044 78.0307 38.2044 78.0307C38.9791 77.7169 39.1471 79.9159 39.1471 79.9159Z" fill="#2F2E41"/>
<path d="M45.4307 23C45.4307 23 36.476 11.4233 47.7523 8.92025C47.7523 8.92025 50.9557 4.38709 54.8918 6.61669C56.8235 7.68604 59.0275 8.239 61.2672 8.21626C63.1742 8.21626 64.9983 8.92025 64.6666 11.7362C64.0033 17.3681 60.3551 16.4295 60.3551 16.4295C60.3551 16.4295 50.4615 12.2477 50.1299 16.9409C49.7982 21.6341 45.4307 23 45.4307 23Z" fill="#2F2E41"/>
</g>
<defs>
<linearGradient id="paint0_linear" x1="55.1618" y1="52" x2="55.1618" y2="30" gradientUnits="userSpaceOnUse">
<stop stop-color="#808080" stop-opacity="0.25"/>
<stop offset="0.54" stop-color="#808080" stop-opacity="0.12"/>
<stop offset="1" stop-color="#808080" stop-opacity="0.1"/>
</linearGradient>
<clipPath id="clip0">
<rect width="88" height="159" fill="white"/>
</clipPath>
</defs>
</svg>
